<svg xmlns="http://www.w3.org/2000/svg" width="85" height="24" viewBox="0 0 85 24">
    <defs>
        <linearGradient id="prefix__a" x1="0%" x2="100%" y1="0%" y2="100%">
            <stop offset="0%" stop-color="#34DFDA"/>
            <stop offset="100%" stop-color="#12AAB3"/>
        </linearGradient>
    </defs>
    <g fill="none">
        <g>
            <circle cx="11.636" cy="11.636" r="11.636" fill="url(#prefix__a)"/>
            <path fill="#FFF" d="M7.393 13.626l10.062.001v1.138c0 1.047-.882 1.914-1.97 1.914H6.291c-.261 0-.473-.204-.473-.455v-1.46c0-.838.706-1.138 1.575-1.138zm7.41-3.399c.22-.038.516-.008.764.3.458.57 1.888 2.343 1.888 2.343H12.94c-.203.002-.394-.091-.512-.25-.154-.211-.19-.559.457-1.055l1.502-1.15c.12-.095.263-.16.415-.188zm-4.486-1.372c.202-.002.392.091.51.25.154.21.189.557-.456 1.052l-1.496 1.15c-.12.094-.262.159-.414.187-.219.038-.514.008-.762-.3-.456-.57-1.88-2.339-1.88-2.339zm6.642-3.813c.26 0 .471.204.471.455l.025 1.084c0 .837-.703 1.516-1.57 1.516H5.818V6.582c0-1.047.855-1.54 1.938-1.54h9.203z"/>
        </g>
        <path fill="#12AAB3" d="M31.534 6c.84 0 1.576.12 2.204.36.62.235 1.192.584 1.683 1.028l-1.026 1.154c-.384-.342-.83-.606-1.316-.778-.458-.16-.94-.242-1.426-.243-.363-.004-.724.052-1.068.167-.32.112-.573.277-.758.494-.185.217-.277.493-.277.828 0 .295.082.549.248.76.165.213.446.41.84.592.397.182.94.375 1.63.582.607.172 1.196.407 1.754.702.52.279.929.644 1.229 1.095.3.452.45 1.042.449 1.772 0 .68-.175 1.283-.526 1.81-.35.527-.855.939-1.513 1.234-.66.295-1.454.443-2.385.443-.943 0-1.769-.14-2.478-.422-.71-.282-1.309-.657-1.798-1.125l1.069-1.187c.413.372.888.67 1.405.882.521.213 1.118.32 1.79.322.41.004.818-.065 1.204-.205.343-.122.646-.336.874-.619.22-.276.329-.623.328-1.041 0-.34-.07-.628-.21-.862-.14-.234-.382-.445-.727-.635-.346-.19-.827-.374-1.444-.552-.819-.245-1.506-.518-2.061-.82-.555-.3-.975-.66-1.258-1.082-.283-.421-.425-.932-.425-1.535 0-.624.173-1.17.518-1.639.345-.468.819-.832 1.422-1.091.603-.26 1.285-.389 2.049-.389zm14.606.6l-.196 1.545h-3.251V18h-1.805V8.145h-3.254L37.44 6.6h8.7zm4.866 0c1.44 0 2.528.274 3.264.822.736.548 1.105 1.373 1.105 2.474 0 .563-.113 1.052-.337 1.466-.222.414-.536.769-.916 1.037-.397.28-.835.494-1.297.635L56 18h-2.193l-2.817-4.692h-1.226V18H47.88V6.6h3.126zm13.603 0l-.215 1.454H59.66v3.428h4.138v1.454H59.66v3.61h5.04V18h-6.96V6.6h6.869zm8.7 0l-.215 1.454H68.36v3.428h4.138v1.454H68.36v3.61h5.04V18h-6.96V6.6h6.869zm5.153 0l1.6 7.641L81.67 6.6h2.68L85 18h-1.944l-.275-5.551c-.017-.419-.03-.824-.038-1.215-.008-.39-.012-.765-.012-1.123s.004-.69.012-.996c.009-.306.018-.582.03-.83l-1.692 7.708h-2.038l-1.817-7.708c.017.237.03.514.042.83.01.317.019.657.024 1.02.006.364.008.744.005 1.14-.003.396-.01.793-.021 1.19l-.225 5.534H75.14L75.79 6.6h2.672zm-27.35 1.421h-1.348v3.883h1.388c.72 0 1.275-.156 1.665-.467.39-.311.585-.825.585-1.54 0-.662-.188-1.14-.565-1.434-.376-.295-.951-.442-1.725-.442z"/>
    </g>
</svg>
