<svg width="20" height="20" viewBox="0 0 20 20" fill="none" xmlns="http://www.w3.org/2000/svg">
    <path fill-rule="evenodd" clip-rule="evenodd" d="M16.875 13.838v-3.213c0-.69-.56-1.25-1.25-1.25h-5V6.162a2.5 2.5 0 1 0-1.25 0v3.213h-5c-.69 0-1.25.56-1.25 1.25v3.213a2.5 2.5 0 1 0 1.25 0v-3.213h11.25v3.213a2.5 2.5 0 1 0 1.25 0zM5 16.25a1.25 1.25 0 1 1-2.5 0 1.25 1.25 0 0 1 2.5 0zm3.75-12.5a1.25 1.25 0 1 1 2.5 0 1.25 1.25 0 0 1-2.5 0zm7.5 13.75a1.25 1.25 0 1 1 0-2.5 1.25 1.25 0 0 1 0 2.5z" fill="#1D84FF"/>
</svg>