<svg xmlns="http://www.w3.org/2000/svg" width="1333" height="420" viewBox="0 0 1333 420">
  <defs>
    <linearGradient id="inverted-a" x1="14.729%" x2="59.136%" y1="29.344%" y2="55.35%">
      <stop offset="0%" stop-color="#1A3C80"/>
      <stop offset="7.644%" stop-color="#1A3D81"/>
      <stop offset="14.381%" stop-color="#1B3D83"/>
      <stop offset="20.293%" stop-color="#1B3F86"/>
      <stop offset="25.463%" stop-color="#1C418A"/>
      <stop offset="29.973%" stop-color="#1D428E"/>
      <stop offset="33.906%" stop-color="#1E4593"/>
      <stop offset="37.344%" stop-color="#1F4797"/>
      <stop offset="40.37%" stop-color="#20499D"/>
      <stop offset="43.066%" stop-color="#214CA2"/>
      <stop offset="45.515%" stop-color="#224EA7"/>
      <stop offset="47.799%" stop-color="#2351AC"/>
      <stop offset="50%" stop-color="#2453B2"/>
      <stop offset="52.201%" stop-color="#2555B7"/>
      <stop offset="54.485%" stop-color="#2658BB"/>
      <stop offset="56.934%" stop-color="#275AC0"/>
      <stop offset="59.63%" stop-color="#275CC4"/>
      <stop offset="62.656%" stop-color="#285DC8"/>
      <stop offset="66.094%" stop-color="#295FCB"/>
      <stop offset="70.027%" stop-color="#2A60CE"/>
      <stop offset="74.537%" stop-color="#2A62D1"/>
      <stop offset="79.707%" stop-color="#2A63D3"/>
      <stop offset="85.619%" stop-color="#2B63D5"/>
      <stop offset="92.356%" stop-color="#2B64D6"/>
      <stop offset="100%" stop-color="#2B64D6"/>
    </linearGradient>
  </defs>
  <g fill="none">
    <path fill="#FFF" d="M591.36456,108 C605.359974,108 617.266802,109.855118 627.085045,113.565354 C636.886987,117.273949 646.005625,122.583293 654.06944,129.277067 L631.35371,156.621127 C626.019276,152.216757 620.027977,148.674992 613.597581,146.124567 C606.865242,143.492391 599.690764,142.175089 592.462487,142.243963 C584.452585,142.193563 576.624562,144.630932 570.059098,149.219585 C563.313788,153.87 557.931422,161.189513 553.912,171.178125 C549.892577,181.166736 547.873401,194.152562 547.854472,210.135602 C547.854472,225.828385 549.804238,238.631223 553.703772,248.544116 C557.603306,258.457008 562.966742,265.735506 569.794081,270.379611 C576.73748,275.06044 584.951141,277.495463 593.323791,277.355233 C603.091555,277.355233 611.218739,275.525355 617.705342,271.865599 C623.975097,268.344875 629.959435,264.338439 635.603444,259.883051 L656.60603,286.649753 C648.676149,294.298168 639.535942,300.58246 629.555381,305.248257 C618.828509,310.416086 605.908937,313 590.796667,313 C573.128876,313 557.464487,309.078382 543.8035,301.235145 C530.142512,293.391908 519.415639,281.83528 511.622882,266.565262 C503.880604,251.301553 500.00631,232.488511 500,210.126137 C500,188.337966 504.016267,169.830956 512.048802,154.605106 C520.081336,139.379257 531.003817,127.800545 544.816243,119.868969 C558.653908,111.962633 574.170014,108.00631 591.36456,108 Z M1249.85572,112.931206 L1299.74514,269.21543 C1298.704,263.29041 1297.64709,256.220139 1296.5744,248.004617 C1295.50172,239.789095 1294.58362,230.604999 1293.82012,220.452329 C1293.07555,210.30597 1292.70011,199.408729 1292.6938,187.760608 L1292.6938,112.931206 L1332.01094,112.931206 L1332.01094,308.248626 L1275.93148,308.248626 L1224.48982,151.131493 C1225.12081,155.359142 1225.84961,160.457562 1226.67621,166.426751 C1227.50281,172.39594 1228.27893,179.021361 1229.00457,186.303015 C1229.74914,193.578358 1230.35805,201.304862 1230.83129,209.482525 C1231.30454,217.660187 1231.54116,226.020838 1231.54116,234.564477 L1231.54116,308.267556 L1192.22402,308.267556 L1192.22402,112.931206 L1249.85572,112.931206 Z M986.599335,112.931206 L981.94261,145.906875 L905.106653,145.906875 L905.106653,192.833787 L972.752205,192.833787 L972.752205,225.251027 L905.106653,225.251027 L905.106653,275.130985 L981.904751,275.130985 L986.703449,308.258091 L858.927467,308.258091 L858.927467,112.931206 L986.599335,112.931206 Z M1155.80313,112.931206 L1151.0139,145.906875 L1074.20633,145.906875 L1074.20633,192.833787 L1141.85189,192.833787 L1141.85189,225.251027 L1074.20633,225.251027 L1074.20633,275.130985 L1151.0139,275.130985 L1155.80313,308.258091 L1028.02715,308.258091 L1028.02715,112.931206 L1155.80313,112.931206 Z M736.006972,112.931206 L736.006972,271.75202 L815.909553,271.75202 L820.698786,308.248626 L689.789926,308.248626 L689.789926,112.931206 L736.006972,112.931206 Z"/>
    <circle cx="210" cy="210" r="210" fill="#FFF"/>
    <path fill="url(#inverted-a)" d="M125.063986,156.530579 C139.426253,142.158851 153.835827,127.84389 168.131865,113.396471 C171.783931,109.70656 175.795526,107.82376 181.112782,108.012986 C200.139474,108.675278 219.18509,109.082114 238.211783,109.602486 C240.264887,109.659254 242.876208,109.290263 244.76847,110.160703 C251.12647,113.065325 250.975089,115.780721 246.159282,120.568143 C217.321212,149.418829 188.457911,178.263207 159.569381,207.101277 C156.825601,209.826134 156.67422,211.235869 159.503152,214.045878 C188.757519,243.148865 217.923582,272.337004 247.001339,301.610294 C250.596636,305.215053 250.710172,306.151723 246.395815,309.122574 C243.841261,310.882377 240.785259,311.298675 237.719794,311.383827 C218.371417,311.885276 199.013579,312.329958 179.674663,312.992249 C175.190002,313.134169 171.77447,311.317597 168.775235,308.327824 C139.476714,279.041918 110.193962,249.746551 80.9269789,220.441723 C74.1905267,213.676887 74.4081368,207.252658 81.2959699,200.345902 C95.866386,185.718718 110.455725,171.113611 125.063986,156.530579 Z M211.877227,216.562586 L270.667747,275.383545 C272.086954,276.804839 274.01276,277.603446 276.020938,277.603446 C278.029117,277.603446 279.954922,276.804839 281.374129,275.383545 L341.668461,215.058238 C343.089247,213.638525 343.88757,211.712032 343.88757,209.703137 C343.88757,207.694242 343.089247,205.767749 341.668461,204.348036 L282.877941,145.602767 C281.458734,144.181474 279.532928,143.382867 277.52475,143.382867 C275.516571,143.382867 273.590765,144.181474 272.171559,145.602767 L211.877227,205.871307 C208.931017,208.825714 208.931017,213.608179 211.877227,216.562586 Z"/>
  </g>
</svg>
