<svg xmlns="http://www.w3.org/2000/svg" width="720" height="1080" viewBox="0 0 720 1080">
  <g fill="none" fill-rule="evenodd">
    <rect width="720" height="1080" fill="#F4F4F4"/>
    <path stroke="#1D84FF" d="M-9.78021114,145.559523 L160.180611,289.810268 C193.86632,318.400319 244.350799,314.269472 272.94085,280.583763 C281.241173,270.804058 287.068155,259.171828 289.93041,246.668009 L339.776218,28.9156476 C349.635116,-14.1531366 322.713184,-57.0595006 279.6444,-66.9183987 C265.316699,-70.1981601 250.362366,-69.4672856 236.422774,-64.8059952 L16.6161449,8.69562209 C-25.2859912,22.7073686 -47.8956191,68.0345263 -33.8838726,109.936662 C-29.2518733,123.788659 -20.9160238,136.108232 -9.78021114,145.559523 Z" opacity=".4" transform="rotate(127 126.788 132.5)"/>
    <path stroke="#1D84FF" d="M471.915181,679.263468 L709.665245,881.240898 C730.710428,899.119555 762.264435,896.552579 780.143092,875.507396 C785.34106,869.388806 788.989214,862.10849 790.779056,854.282093 L860.505972,549.388953 C866.662218,522.46969 849.830467,495.656692 822.911203,489.500446 C813.954653,487.452146 804.606887,487.911315 795.894198,490.827542 L488.417219,593.743251 C462.23089,602.508085 448.107978,630.8416 456.872812,657.027929 C459.766218,665.672438 464.967843,673.361448 471.915181,679.263468 Z" opacity=".4" transform="rotate(127 642.364 698.554)"/>
    <path stroke="#1D84FF" d="M493.637368,-34.139934 L694.981881,136.747071 C716.035449,154.615854 747.588249,152.034074 765.457031,130.980506 C770.644733,124.86819 774.286596,117.598047 776.075506,109.78316 L835.125466,-148.17772 C841.287278,-175.09571 824.46107,-201.912188 797.54308,-208.073999 C788.588267,-210.12385 779.241809,-209.667054 770.529564,-206.753747 L510.135091,-119.679872 C483.946256,-110.922531 469.815238,-82.593057 478.57258,-56.404222 C481.467579,-47.746724 486.677485,-40.0469912 493.637368,-34.139934 Z" opacity=".4" transform="rotate(127 640.5 -22.505)"/>
    <path stroke="#1D84FF" d="M-32.8056325,967.821997 L218.798754,1181.36603 C239.852323,1199.23482 271.405122,1196.65304 289.273904,1175.59947 C294.461606,1169.48715 298.103469,1162.21701 299.892379,1154.40212 L373.682466,832.048719 C379.844277,805.130729 363.01807,778.314252 336.100079,772.15244 C327.145266,770.10259 317.798808,770.559386 309.086564,773.472693 L-16.3079099,882.282059 C-42.496745,891.039401 -56.6277625,919.368874 -47.8704209,945.557709 C-44.9754213,954.215207 -39.7655154,961.91494 -32.8056325,967.821997 Z" opacity=".4" transform="rotate(127 146.557 989.918)"/>
  </g>
</svg>
