<svg width="17" height="18" viewBox="0 0 17 18" fill="none" xmlns="http://www.w3.org/2000/svg">
<path fill-rule="evenodd" clip-rule="evenodd" d="M15.5 2.75C15.5 2.05964 14.9404 1.5 14.25 1.5H11.75V0.25H10.5V1.5H5.5V0.25H4.25V1.5H1.75C1.05964 1.5 0.5 2.05964 0.5 2.75V15.25C0.5 15.9404 1.05964 16.5 1.75 16.5H4.25V15.25H1.75V2.75H4.25V4H5.5V2.75H10.5V4H11.75V2.75H14.25V6.5H15.5V2.75ZM6.125 12.75C6.125 15.5114 8.36358 17.75 11.125 17.75C13.8864 17.75 16.125 15.5114 16.125 12.75C16.125 9.98858 13.8864 7.75 11.125 7.75C8.36358 7.75 6.125 9.98858 6.125 12.75ZM10.5 13.0063L12.1187 14.625L13 13.7437L11.75 12.4937V10.25H10.5V13.0063ZM7.375 12.75C7.375 10.6789 9.05393 9 11.125 9C13.1961 9 14.875 10.6789 14.875 12.75C14.875 14.8211 13.1961 16.5 11.125 16.5C9.05393 16.5 7.375 14.8211 7.375 12.75Z" fill="#161616"/>
</svg>
