<svg width="20" height="20" viewBox="0 0 20 20" fill="none" xmlns="http://www.w3.org/2000/svg">
<path fill-rule="evenodd" clip-rule="evenodd" d="M17.5 3.75C17.5 3.05964 16.9404 2.5 16.25 2.5H13.75V1.25H12.5V2.5H7.5V1.25H6.25V2.5H3.75C3.05964 2.5 2.5 3.05964 2.5 3.75V16.25C2.5 16.9404 3.05964 17.5 3.75 17.5H6.25V16.25H3.75V3.75H6.25V5H7.5V3.75H12.5V5H13.75V3.75H16.25V7.5H17.5V3.75Z" fill="#161616"/>
<path fill-rule="evenodd" clip-rule="evenodd" d="M11.8312 11.5567H10.5132C11.4507 10.1419 12.9326 10.044 14.4679 10.4453C15.8651 10.9971 16.8753 11.9483 16.8752 13.6364H18.1336C18.1356 11.7371 16.7265 9.84499 14.9078 9.19894C13.0891 8.55288 10.9492 8.98431 9.71344 10.4453V9.19893H8.52948V10.7526V12.5714H11.8312V11.5567Z" fill="#161616"/>
<path fill-rule="evenodd" clip-rule="evenodd" d="M14.6895 15.7893H16.0075C15.07 17.2042 13.5881 17.3021 12.0528 16.9008C10.6556 16.349 9.64538 15.3977 9.64549 13.7097H8.3871C8.38511 15.6089 9.79421 17.5011 11.6129 18.1471C13.4316 18.7932 15.5715 18.3618 16.8072 16.9008V18.1471H17.9912V16.5935V14.7747H14.6895V15.7893Z" fill="#161616"/>
</svg>
