<svg width="36" height="36" viewBox="0 0 36 36" fill="none" xmlns="http://www.w3.org/2000/svg">
<rect x="0.5" y="0.5" width="35" height="35" stroke="#CCCCCC"/>
<path fill-rule="evenodd" clip-rule="evenodd" d="M24.8752 21.8373V18.6248C24.8752 17.9345 24.3155 17.3748 23.6252 17.3748H18.6252V14.1623C19.8441 13.8476 20.6389 12.6756 20.4803 11.4267C20.3216 10.1778 19.2591 9.2417 18.0002 9.2417C16.7413 9.2417 15.6787 10.1778 15.5201 11.4267C15.3615 12.6756 16.1562 13.8476 17.3752 14.1623V17.3748H12.3752C11.6848 17.3748 11.1252 17.9345 11.1252 18.6248V21.8373C9.90624 22.152 9.11148 23.3241 9.27011 24.5729C9.42874 25.8218 10.4913 26.7579 11.7502 26.7579C13.0091 26.7579 14.0716 25.8218 14.2303 24.5729C14.3889 23.3241 13.5941 22.152 12.3752 21.8373V18.6248H23.6252V21.8373C22.4062 22.152 21.6115 23.3241 21.7701 24.5729C21.9287 25.8218 22.9913 26.7579 24.2502 26.7579C25.5091 26.7579 26.5716 25.8218 26.7303 24.5729C26.8889 23.3241 26.0941 22.152 24.8752 21.8373ZM13.0002 24.2498C13.0002 24.9402 12.4405 25.4998 11.7502 25.4998C11.0598 25.4998 10.5002 24.9402 10.5002 24.2498C10.5002 23.5595 11.0598 22.9998 11.7502 22.9998C12.4405 22.9998 13.0002 23.5595 13.0002 24.2498ZM16.7502 11.7498C16.7502 11.0595 17.3098 10.4998 18.0002 10.4998C18.6905 10.4998 19.2502 11.0595 19.2502 11.7498C19.2502 12.4402 18.6905 12.9998 18.0002 12.9998C17.3098 12.9998 16.7502 12.4402 16.7502 11.7498ZM24.2502 25.4998C23.5598 25.4998 23.0002 24.9402 23.0002 24.2498C23.0002 23.5595 23.5598 22.9998 24.2502 22.9998C24.9405 22.9998 25.5002 23.5595 25.5002 24.2498C25.5002 24.9402 24.9405 25.4998 24.2502 25.4998Z" fill="#161616"/>
</svg>
